<svg width="7" height="14" viewBox="0 0 7 14" fill="none" xmlns="http://www.w3.org/2000/svg">
<path d="M1.33614 1.13567C1.19062 0.973018 1.00542 0.884298 0.787148 0.884298C0.350602 0.884298 4.29153e-05 1.26875 4.29153e-05 1.75671C4.29153e-05 2.00068 0.0926433 2.22248 0.244773 2.39253L4.8748 7.44954L0.244773 12.4918C0.0926433 12.6618 4.29153e-05 12.891 4.29153e-05 13.1276C4.29153e-05 13.6155 0.350602 14 0.787148 14C1.00542 14 1.19062 13.9113 1.33614 13.7486L6.48209 8.12972C6.66729 7.9375 6.75327 7.70091 6.75989 7.44215C6.75989 7.18338 6.66729 6.96159 6.48209 6.76197L1.33614 1.13567Z" fill="#666666"/>
</svg>
