<svg width="9" height="6" viewBox="0 0 9 6" fill="none" xmlns="http://www.w3.org/2000/svg">
<path id="Icon" d="M8.82751 1.48826C8.93912 1.38063 9 1.24364 9 1.08219C9 0.759295 8.73619 0.499999 8.40135 0.499999C8.23393 0.499999 8.08174 0.568492 7.96505 0.681017L4.49493 4.10567L1.03495 0.681017C0.918264 0.568492 0.760992 0.499999 0.598647 0.499999C0.26381 0.5 -2.07223e-07 0.759295 -1.93109e-07 1.08219C-1.86051e-07 1.24364 0.0608792 1.38063 0.172491 1.48826L4.02818 5.29452C4.16009 5.43151 4.32244 5.49511 4.5 5.5C4.67757 5.5 4.82976 5.43151 4.96674 5.29452L8.82751 1.48826Z" fill="#ADADAD"/>
</svg>
