<svg width="22" height="20" viewBox="0 0 22 20" fill="none" xmlns="http://www.w3.org/2000/svg">
<path fill-rule="evenodd" clip-rule="evenodd" d="M5.67334 1C6.35334 1 6.90459 1.57563 6.90459 2.28571V4.85714C6.90459 5.56722 6.35334 6.14286 5.67334 6.14286C4.99333 6.14286 4.44208 5.56722 4.44208 4.85714V2.28571C4.44208 1.57563 4.99333 1 5.67334 1Z" stroke="#D30065" stroke-width="1.5" stroke-linecap="round" stroke-linejoin="round"/>
<path d="M20.4484 3.57153H6.9046" stroke="#D30065" stroke-width="1.5" stroke-linecap="round" stroke-linejoin="round"/>
<path d="M4.44206 3.57153H0.748291" stroke="#D30065" stroke-width="1.5" stroke-linecap="round" stroke-linejoin="round"/>
<path fill-rule="evenodd" clip-rule="evenodd" d="M5.67334 13.8572C6.35334 13.8572 6.90459 14.4328 6.90459 15.1429V17.7143C6.90459 18.4244 6.35334 19 5.67334 19C4.99333 19 4.44208 18.4244 4.44208 17.7143V15.1429C4.44208 14.4328 4.99333 13.8572 5.67334 13.8572Z" stroke="#D30065" stroke-width="1.5" stroke-linecap="round" stroke-linejoin="round"/>
<path d="M20.4484 16.4285H6.9046" stroke="#D30065" stroke-width="1.5" stroke-linecap="round" stroke-linejoin="round"/>
<path d="M4.44206 16.4285H0.748291" stroke="#D30065" stroke-width="1.5" stroke-linecap="round" stroke-linejoin="round"/>
<path fill-rule="evenodd" clip-rule="evenodd" d="M15.3866 7C16.0666 7 16.6178 7.57563 16.6178 8.28571V10.8571C16.6178 11.5672 16.0666 12.1429 15.3866 12.1429C14.7066 12.1429 14.1553 11.5672 14.1553 10.8571V8.28571C14.1553 7.57563 14.7066 7 15.3866 7Z" stroke="#D30065" stroke-width="1.5" stroke-linecap="round" stroke-linejoin="round"/>
<path d="M14.2921 10H0.748291" stroke="#D30065" stroke-width="1.5" stroke-linecap="round" stroke-linejoin="round"/>
<path d="M20.4484 10H16.7546" stroke="#D30065" stroke-width="1.5" stroke-linecap="round" stroke-linejoin="round"/>
</svg>
