<svg width="22" height="20" viewBox="0 0 22 20" fill="none" xmlns="http://www.w3.org/2000/svg">
<path fill-rule="evenodd" clip-rule="evenodd" d="M5.97314 1C6.65314 1 7.2044 1.57563 7.2044 2.28571V4.85714C7.2044 5.56722 6.65314 6.14286 5.97314 6.14286C5.29314 6.14286 4.74188 5.56722 4.74188 4.85714V2.28571C4.74188 1.57563 5.29314 1 5.97314 1Z" stroke="#666666" stroke-width="1.5" stroke-linecap="round" stroke-linejoin="round"/>
<path d="M20.7482 3.57153H7.20441" stroke="#666666" stroke-width="1.5" stroke-linecap="round" stroke-linejoin="round"/>
<path d="M4.74187 3.57153H1.0481" stroke="#666666" stroke-width="1.5" stroke-linecap="round" stroke-linejoin="round"/>
<path fill-rule="evenodd" clip-rule="evenodd" d="M5.97314 13.8572C6.65314 13.8572 7.2044 14.4328 7.2044 15.1429V17.7143C7.2044 18.4244 6.65314 19 5.97314 19C5.29314 19 4.74188 18.4244 4.74188 17.7143V15.1429C4.74188 14.4328 5.29314 13.8572 5.97314 13.8572Z" stroke="#666666" stroke-width="1.5" stroke-linecap="round" stroke-linejoin="round"/>
<path d="M20.7482 16.4285H7.20441" stroke="#666666" stroke-width="1.5" stroke-linecap="round" stroke-linejoin="round"/>
<path d="M4.74187 16.4285H1.0481" stroke="#666666" stroke-width="1.5" stroke-linecap="round" stroke-linejoin="round"/>
<path fill-rule="evenodd" clip-rule="evenodd" d="M15.6864 7C16.3664 7 16.9176 7.57563 16.9176 8.28571V10.8571C16.9176 11.5672 16.3664 12.1429 15.6864 12.1429C15.0064 12.1429 14.4551 11.5672 14.4551 10.8571V8.28571C14.4551 7.57563 15.0064 7 15.6864 7Z" stroke="#666666" stroke-width="1.5" stroke-linecap="round" stroke-linejoin="round"/>
<path d="M14.5919 10H1.0481" stroke="#666666" stroke-width="1.5" stroke-linecap="round" stroke-linejoin="round"/>
<path d="M20.7482 10H17.0544" stroke="#666666" stroke-width="1.5" stroke-linecap="round" stroke-linejoin="round"/>
</svg>
