<svg width="390" height="240" viewBox="0 0 390 240" fill="none" xmlns="http://www.w3.org/2000/svg">
<rect width="390" height="240" fill="#EAEAEA"/>
<path fill-rule="evenodd" clip-rule="evenodd" d="M216.998 92.054C216.998 90.9197 216.21 90 215.239 90H167.758C166.787 90 166 90.9197 166 92.054V131.946C166 133.08 166.787 134 167.758 134H215.239C216.21 134 216.998 133.08 216.998 131.946V92.054Z" stroke="white" stroke-width="2"/>
<path fill-rule="evenodd" clip-rule="evenodd" d="M179.224 110.977C181.778 110.977 183.849 108.56 183.849 105.579C183.849 102.598 181.778 100.181 179.224 100.181C176.67 100.181 174.6 102.598 174.6 105.579C174.6 108.56 176.67 110.977 179.224 110.977Z" stroke="white" stroke-width="2"/>
<path d="M177.058 133.999L192.377 108.81L198.711 118.787L206.856 103.833L216.997 121.049" stroke="white" stroke-width="2"/>
<path d="M222.13 120L220.259 124.451C219.885 124.564 219.549 124.751 219.212 124.938L214.761 123.067L212.067 125.761L213.938 130.212C213.751 130.586 213.601 130.885 213.451 131.259L209 133.13V136.87L213.451 138.741C213.601 139.115 213.751 139.414 213.938 139.788L212.067 144.239L214.761 146.933L219.212 145.062C219.549 145.212 219.885 145.399 220.259 145.549L222.13 150H225.87L227.741 145.549C228.077 145.399 228.451 145.249 228.788 145.062L233.239 146.933L235.933 144.239L234.062 139.788C234.212 139.451 234.399 139.077 234.549 138.741L239 136.87V133.13L234.549 131.259C234.436 130.923 234.249 130.549 234.062 130.212L235.933 125.761L233.239 123.067L228.788 124.938C228.451 124.788 228.077 124.601 227.741 124.451L225.87 120H222.13ZM224 129.352C227.105 129.352 229.611 131.858 229.611 134.963C229.611 138.067 227.105 140.574 224 140.574C220.895 140.574 218.389 138.067 218.389 134.963C218.389 131.858 220.895 129.352 224 129.352Z" fill="white"/>
</svg>
