<svg width="22" height="19" viewBox="0 0 22 19" fill="none" xmlns="http://www.w3.org/2000/svg">
<path d="M19.8 9.05835H7.2" stroke="current" stroke-width="2.5" stroke-linecap="round" stroke-linejoin="round"/>
<path d="M19.8 16.2581H7.19998" stroke="current" stroke-width="2.5" stroke-linecap="round" stroke-linejoin="round"/>
<path d="M19.8 1.85815H7.2" stroke="current" stroke-width="2.5" stroke-linecap="round" stroke-linejoin="round"/>
<path fill-rule="evenodd" clip-rule="evenodd" d="M1.79791 3.65811C2.69791 3.65811 3.59791 2.75811 3.59791 1.85811C3.59791 0.958105 2.69791 0.0581055 1.79791 0.0581055C0.897913 0.0581055 0 0.958105 0 1.85811C0 2.75811 0.897913 3.65811 1.79791 3.65811ZM1.79791 10.8581C2.69791 10.8581 3.59791 9.95811 3.59791 9.05811C3.59791 8.1581 2.69791 7.25811 1.79791 7.25811C0.897913 7.25811 0 8.1581 0 9.05811C0 9.95811 0.897913 10.8581 1.79791 10.8581ZM1.79791 18.0581C2.69791 18.0581 3.59791 17.1581 3.59791 16.2581C3.59791 15.3581 2.69791 14.4581 1.79791 14.4581C0.897913 14.4581 0 15.3581 0 16.2581C0 17.1581 0.897913 18.0581 1.79791 18.0581Z" fill="current"/>
</svg>
