<svg width="28" height="20" viewBox="0 0 28 20" fill="none" xmlns="http://www.w3.org/2000/svg">
<g id="Group">
<g id="Group_2">
<path id="Vector" fill-rule="evenodd" clip-rule="evenodd" d="M19.6949 11.4121C21.4074 12.5746 22.6074 14.1496 22.6074 16.2496V19.9996H26.3574C27.0449 19.9996 27.6074 19.4371 27.6074 18.7496V16.2496C27.6074 13.5246 23.1449 11.9121 19.6949 11.4121Z" fill="#464646"/>
</g>
<g id="Group_3">
<path id="Vector_2" d="M10.1074 10C12.8688 10 15.1074 7.76142 15.1074 5C15.1074 2.23858 12.8688 0 10.1074 0C7.346 0 5.10742 2.23858 5.10742 5C5.10742 7.76142 7.346 10 10.1074 10Z" fill="#464646"/>
</g>
<g id="Group_4">
<path id="Vector_3" fill-rule="evenodd" clip-rule="evenodd" d="M17.6074 10C20.3699 10 22.6074 7.7625 22.6074 5C22.6074 2.2375 20.3699 0 17.6074 0C17.0199 0 16.4699 0.125 15.9449 0.3C16.9824 1.5875 17.6074 3.225 17.6074 5C17.6074 6.775 16.9824 8.4125 15.9449 9.7C16.4699 9.875 17.0199 10 17.6074 10Z" fill="#464646"/>
</g>
<g id="Group_5">
<path id="Vector_4" fill-rule="evenodd" clip-rule="evenodd" d="M10.1074 11.25C6.76992 11.25 0.107422 12.925 0.107422 16.25V18.75C0.107422 19.4375 0.669922 20 1.35742 20H18.8574C19.5449 20 20.1074 19.4375 20.1074 18.75V16.25C20.1074 12.925 13.4449 11.25 10.1074 11.25Z" fill="#464646"/>
</g>
</g>
</svg>
