<svg width="18" height="21" viewBox="0 0 18 21" fill="none" xmlns="http://www.w3.org/2000/svg">
<path id="Vector" d="M2.60742 0.5C2.43242 0.5 2.28242 0.525 2.13242 0.575C1.15742 0.775 0.382422 1.55 0.182422 2.525C0.107422 2.675 0.107422 2.825 0.107422 3V16.75C0.107422 18.825 1.78242 20.5 3.85742 20.5H17.6074V18H3.85742C3.15742 18 2.60742 17.45 2.60742 16.75C2.60742 16.05 3.15742 15.5 3.85742 15.5H17.6074V1.75C17.6074 1.05 17.0574 0.5 16.3574 0.5H15.1074V8L12.6074 5.5L10.1074 8V0.5H2.60742Z" fill="#464646"/>
</svg>
