<svg width="16" height="20" viewBox="0 0 16 20" fill="none" xmlns="http://www.w3.org/2000/svg">
<path id="Vector" d="M7.85742 0C3.56192 0 0.0676575 3.22548 0.0676575 7.19055C0.0676575 11.4741 4.98634 17.3806 7.00055 19.6302C7.44567 20.1233 8.25804 20.1233 8.70317 19.6302C10.7285 17.3806 15.6472 11.4741 15.6472 7.19055C15.6472 3.22548 12.1529 0 7.85742 0ZM12.6537 6.32768L6.9449 11.5973C6.5109 11.9979 5.80983 11.9979 5.37582 11.5973L3.07228 9.47098C2.63828 9.07036 2.63828 8.41294 3.07228 8.01233C3.50628 7.61171 4.21849 7.61171 4.65249 8.01233L6.16593 9.40935L11.0846 4.86903C11.5186 4.46841 12.2308 4.46841 12.6648 4.86903C13.0877 5.27992 13.0877 5.92707 12.6537 6.32768Z" fill="#464646"/>
</svg>
