<svg width="43" height="20" viewBox="0 0 43 20" fill="none" xmlns="http://www.w3.org/2000/svg">
<rect x="0.75" y="0.75" width="41.5" height="18.5" rx="9.25" fill="#D30065"/>
<rect x="0.75" y="0.75" width="41.5" height="18.5" rx="9.25" stroke="#FFF500" stroke-width="0.5"/>
<path d="M11.4211 7.533V9.729H14.9941V7.533H11.4211ZM13.8061 12.348H16.9741V13.311H9.46805V12.348H12.6181V10.665H10.2601V6.597H16.1551V10.665H13.8061V12.348ZM22.9134 9.468L22.3374 10.386C21.4014 10.116 20.7624 9.549 20.3844 8.838C20.0064 9.612 19.3404 10.233 18.3684 10.53L17.7744 9.594C19.0884 9.207 19.6914 8.307 19.7544 7.371H18.0984V6.435H22.6074V7.371H20.9784C21.0414 8.244 21.6534 9.099 22.9134 9.468ZM23.4534 13.23V12.501H20.3034V13.23H23.4534ZM23.4534 11.592V10.836H24.6324V14.175H19.1244V10.836H20.3034V11.592H23.4534ZM23.4354 5.994H24.6324V10.485H23.4354V5.994ZM26.7466 9.423L26.3506 8.505C27.8896 8.37 28.6996 7.83 28.9066 7.272H26.7106V6.327H32.8396V7.272H30.6346C30.8416 7.83 31.6516 8.37 33.1996 8.505L32.7856 9.423C31.2286 9.288 30.2116 8.703 29.7706 7.92C29.3296 8.703 28.3126 9.288 26.7466 9.423ZM31.4266 12.78C31.4266 12.357 30.8596 12.177 29.7526 12.177C28.6456 12.177 28.0786 12.357 28.0786 12.78C28.0786 13.194 28.6456 13.374 29.7526 13.374C30.8596 13.374 31.4266 13.194 31.4266 12.78ZM33.5146 10.692H30.3646V11.304C31.7866 11.421 32.6326 11.934 32.6326 12.78C32.6326 13.734 31.5436 14.283 29.7526 14.283C27.9616 14.283 26.8816 13.734 26.8816 12.78C26.8816 11.925 27.7366 11.412 29.1766 11.295V10.692H26.0266V9.747H33.5146V10.692Z" fill="white"/>
</svg>
