<svg width="50" height="18" viewBox="0 0 50 18" fill="none" xmlns="http://www.w3.org/2000/svg">
<rect width="50" height="18" rx="9" fill="#ADADAD"/>
<path d="M10.6284 6.452V8.864H14.4984V6.452H10.6284ZM13.0314 11.438H16.2624V12.194H8.90041V11.438H12.1044V9.602H9.71941V5.714H15.4074V9.602H13.0314V11.438ZM22.1927 8.639L21.7427 9.359C20.8067 9.071 20.1137 8.468 19.7447 7.703C19.3757 8.531 18.6827 9.188 17.7107 9.503L17.2427 8.774C18.5207 8.378 19.2587 7.379 19.2587 6.335V6.299H17.4947V5.552H21.9407V6.299H20.2037V6.335C20.2037 7.325 20.9417 8.261 22.1927 8.639ZM22.9577 12.347V11.447H19.4837V12.347H22.9577ZM22.9577 10.718V9.845H23.8757V13.094H18.5657V9.845H19.4837V10.718H22.9577ZM22.9487 5.057H23.8757V9.476H22.9487V5.057ZM26.656 6.596V10.43H28.627V6.596H26.656ZM25.738 11.168V5.858H29.545V11.168H25.738ZM33.019 8.243V9.008H31.75V13.202H30.823V5.066H31.75V8.243H33.019ZM34.0623 5.552H37.8513C37.8513 7.658 36.4563 9.134 34.0533 9.773L33.6933 9.035C35.5923 8.531 36.6993 7.541 36.8523 6.308H34.0623V5.552ZM35.8083 10.736V12.347H39.1653V10.736H35.8083ZM34.8903 13.094V9.998H40.0833V13.094H34.8903ZM41.2353 6.947V7.712H40.0833V9.647H39.1563V5.057H40.0833V6.947H41.2353Z" fill="white"/>
</svg>
