<svg width="40" height="24" viewBox="0 0 40 24" fill="none" xmlns="http://www.w3.org/2000/svg">
<rect width="40" height="24" rx="5" fill="current"/>
<path d="M18.384 10.016V11.264H10.74V7.28H18.324V8.54H12.312V10.016H18.384ZM14.484 16.832C15.96 16.832 16.716 16.58 16.716 16.004C16.716 15.428 15.96 15.164 14.484 15.164C13.008 15.164 12.252 15.428 12.252 16.004C12.252 16.58 13.008 16.832 14.484 16.832ZM14.484 13.964C16.872 13.964 18.324 14.696 18.324 16.004C18.324 17.3 16.872 18.032 14.484 18.032C12.096 18.032 10.656 17.3 10.656 16.004C10.656 14.696 12.096 13.964 14.484 13.964ZM9.528 12.032H19.524V13.328H9.528V12.032ZM21.6591 16.028V14.78H29.4111V17.996H27.8271V16.028H21.6591ZM26.3511 12.896H30.5631V14.156H20.5551V12.896H24.7671V12.104H21.8031V9.068H27.7791V8.396H21.7791V7.196H29.3391V10.184H23.3631V10.904H29.5671V12.104H26.3511V12.896Z" fill="white"/>
</svg>
