<svg width="25" height="24" viewBox="0 0 25 24" fill="none" xmlns="http://www.w3.org/2000/svg">
<g clip-path="url(#clip0_507_2082)">
<path d="M20.0481 19.59V8.83C20.0481 8.3 19.8381 7.79 19.4581 7.42L14.6281 2.59C14.2581 2.21 13.7481 2 13.2181 2H6.0481C4.9481 2 4.0581 2.9 4.0581 4L4.0481 20C4.0481 21.1 4.9381 22 6.0381 22H18.0481C18.4981 22 18.8981 21.85 19.2381 21.6L14.8081 17.17C13.9481 17.73 12.9181 18.05 11.8081 17.99C9.4381 17.88 7.4081 16.03 7.0881 13.68C6.6481 10.33 9.5381 7.5 12.9181 8.07C14.8681 8.4 16.4881 9.92 16.9181 11.85C17.2481 13.31 16.9281 14.67 16.2181 15.75L20.0481 19.59ZM9.0481 13C9.0481 14.66 10.3881 16 12.0481 16C13.7081 16 15.0481 14.66 15.0481 13C15.0481 11.34 13.7081 10 12.0481 10C10.3881 10 9.0481 11.34 9.0481 13Z" fill="#666666"/>
</g>
<defs>
<clipPath id="clip0_507_2082">
<rect width="24" height="24" fill="white" transform="translate(0.0480957)"/>
</clipPath>
</defs>
</svg>
