<svg width="50" height="17" viewBox="0 0 50 17" fill="none" xmlns="http://www.w3.org/2000/svg">
<rect width="50" height="17" rx="8.5" fill="#D30065"/>
<path d="M15.7134 4.485V10.479H14.5164V4.485H15.7134ZM13.9944 8.544L13.3914 9.453C12.4734 9.165 11.8434 8.571 11.4654 7.833C11.0964 8.643 10.4304 9.282 9.46741 9.597L8.86441 8.67C10.2414 8.238 10.8444 7.149 10.8444 6.114V6.015H9.17941V5.079H13.6884V6.015H12.0504V6.114C12.0504 7.086 12.6534 8.103 13.9944 8.544ZM11.3844 11.685H15.9204V12.63H10.1964V9.939H11.3844V11.685ZM22.4357 7.491V9.408H21.3287V4.638H22.4357V6.528H23.0477V4.485H24.1727V9.669H23.0477V7.491H22.4357ZM21.1037 5.331V6.249H17.0627V5.331H18.4937V4.575H19.6637V5.331H21.1037ZM18.3587 7.959C18.3587 8.346 18.6557 8.562 19.0967 8.562C19.5377 8.562 19.8257 8.346 19.8257 7.959C19.8257 7.572 19.5377 7.365 19.0967 7.365C18.6557 7.365 18.3587 7.572 18.3587 7.959ZM20.8787 7.959C20.8787 8.814 20.1407 9.408 19.0967 9.408C18.0437 9.408 17.3057 8.814 17.3057 7.959C17.3057 7.104 18.0437 6.519 19.0967 6.519C20.1407 6.519 20.8787 7.104 20.8787 7.959ZM21.3647 11.892C22.4717 11.892 23.0297 11.703 23.0297 11.271C23.0297 10.839 22.4717 10.65 21.3647 10.65C20.2577 10.65 19.6997 10.839 19.6997 11.271C19.6997 11.703 20.2577 11.892 21.3647 11.892ZM21.3647 9.759C23.1467 9.759 24.2177 10.308 24.2177 11.271C24.2177 12.234 23.1467 12.774 21.3647 12.774C19.5827 12.774 18.5117 12.234 18.5117 11.271C18.5117 10.308 19.5827 9.759 21.3647 9.759ZM28.222 9.264V10.848H30.049V9.264C29.761 9.318 29.455 9.345 29.131 9.345C28.807 9.345 28.51 9.318 28.222 9.264ZM29.131 5.826C27.979 5.826 27.214 6.294 27.214 7.122C27.214 7.941 27.979 8.418 29.131 8.418C30.283 8.418 31.057 7.941 31.057 7.122C31.057 6.294 30.283 5.826 29.131 5.826ZM31.228 10.848H32.893V11.811H25.387V10.848H27.043V8.823C26.413 8.436 26.035 7.842 26.044 7.122C26.044 5.763 27.349 4.89 29.131 4.89C30.922 4.89 32.227 5.763 32.227 7.122C32.227 7.842 31.849 8.436 31.228 8.823V10.848ZM37.8963 9.3H39.4533V4.485H40.6413V10.767H39.4533V10.11H37.8963V9.3ZM36.3033 5.628C35.7453 5.628 35.3583 5.844 35.3583 6.249C35.3583 6.654 35.7453 6.861 36.3033 6.861C36.8523 6.861 37.2393 6.654 37.2393 6.249C37.2393 5.844 36.8523 5.628 36.3033 5.628ZM36.3033 7.725C35.0883 7.725 34.2333 7.131 34.2333 6.249C34.2333 5.367 35.0883 4.764 36.3033 4.764C37.5093 4.764 38.3643 5.367 38.3643 6.249C38.3643 7.131 37.5093 7.725 36.3033 7.725ZM35.8623 11.685H40.8213V12.63H34.6743V10.164H35.8263V9.057C35.0973 9.093 34.4043 9.102 33.7833 9.102L33.6303 8.157C35.1423 8.148 37.1583 8.13 38.9043 7.905L38.9853 8.751C38.3373 8.868 37.6713 8.94 37.0053 8.985V10.551H35.8623V11.685Z" fill="white"/>
</svg>
