<svg width="12" height="9" viewBox="0 0 12 9" fill="none" xmlns="http://www.w3.org/2000/svg">
<path d="M0.328071 6.51507C0.180495 6.68986 0.0999992 6.91233 0.0999992 7.17452C0.0999991 7.6989 0.448815 8.12 0.891543 8.12C1.11291 8.12 1.31415 8.00877 1.46843 7.82603L6.05671 2.26438L10.6316 7.82603C10.7859 8.00877 10.9938 8.12 11.2085 8.12C11.6512 8.12 12 7.6989 12 7.17452C12 6.91233 11.9195 6.68986 11.7719 6.51507L6.67384 0.333698C6.49944 0.111233 6.28478 0.00794492 6.05 -3.01696e-07C5.81522 -3.13601e-07 5.61398 0.111233 5.43286 0.333698L0.328071 6.51507Z" fill="#242424"/>
</svg>
